# xmcd
#
# Track frame offsets:
#	182
#	21680
#	32820
#	53897
#	78152
#	99157
#	119282
#
# Disc length: 1814 seconds
#
# Revision: 0
# Processed by: cddbd v1.5.1PL2 Copyright (c) Steve Scherf et al.
# Submitted via: dBpowerAMP V4.0
#
DISCID=51071407
DTITLE=Javier Vela and Blues Mestizo - Blues Mestizo
DYEAR=1900
DGENRE=Blues
TTITLE0=Tu ya no estas
TTITLE1=La hormiga
TTITLE2=Tontos
TTITLE3=La miel
TTITLE4=Ven aqui
TTITLE5=Vuelve a por mi
TTITLE6=El tunel
EXTD=Javier Vela and Blues Mestizo
EXTT0=
EXTT1=
EXTT2=
EXTT3=
EXTT4=
EXTT5=
EXTT6=
PLAYORDER=
